<mxfile host="app.diagrams.net" modified="2024-07-23T08:43:44.196Z" agent="Mozilla/5.0 (Macintosh; Intel Mac OS X 10_15_7) AppleWebKit/537.36 (KHTML, like Gecko) Chrome/125.0.0.0 Safari/537.36" version="24.7.3" etag="mELy4mpi49DSEQou8cg2" type="github">
  <diagram name="Page-1" id="sfRqCM7jmapI6OrAoU3U">
    <mxGraphModel>
      <root>
        <mxCell id="0" />
        <mxCell id="1" parent="0" />
      </root>
    </mxGraphModel>
  </diagram>
</mxfile>
